<svg xmlns="http://www.w3.org/2000/svg" width="20" height="20" viewBox="0 0 20 20" fill="none">
  <path fill-rule="evenodd" clip-rule="evenodd" d="M10.0001 5.83317C9.54175 5.83317 9.16675 6.20817 9.16675 6.6665V9.1665H6.66675C6.20842 9.1665 5.83342 9.5415 5.83342 9.99984C5.83342 10.4582 6.20842 10.8332 6.66675 10.8332H9.16675V13.3332C9.16675 13.7915 9.54175 14.1665 10.0001 14.1665C10.4584 14.1665 10.8334 13.7915 10.8334 13.3332V10.8332H13.3334C13.7917 10.8332 14.1667 10.4582 14.1667 9.99984C14.1667 9.5415 13.7917 9.1665 13.3334 9.1665H10.8334V6.6665C10.8334 6.20817 10.4584 5.83317 10.0001 5.83317ZM10.0001 1.6665C5.40008 1.6665 1.66675 5.39984 1.66675 9.99984C1.66675 14.5998 5.40008 18.3332 10.0001 18.3332C14.6001 18.3332 18.3334 14.5998 18.3334 9.99984C18.3334 5.39984 14.6001 1.6665 10.0001 1.6665ZM10.0001 16.6665C6.32508 16.6665 3.33341 13.6748 3.33341 9.99984C3.33341 6.32484 6.32508 3.33317 10.0001 3.33317C13.6751 3.33317 16.6667 6.32484 16.6667 9.99984C16.6667 13.6748 13.6751 16.6665 10.0001 16.6665Z" fill="white"/>
</svg>
