<svg xmlns="http://www.w3.org/2000/svg" width="20" height="20" viewBox="0 0 20 20" fill="none">
  <path fill-rule="evenodd" clip-rule="evenodd" d="M5.33366 7.6665H5.50033C6.14199 7.6665 6.66699 8.1915 6.66699 8.83317V14.6665C6.66699 15.3082 6.14199 15.8332 5.50033 15.8332H5.33366C4.69199 15.8332 4.16699 15.3082 4.16699 14.6665V8.83317C4.16699 8.1915 4.69199 7.6665 5.33366 7.6665ZM10.0003 4.1665C10.642 4.1665 11.167 4.6915 11.167 5.33317V14.6665C11.167 15.3082 10.642 15.8332 10.0003 15.8332C9.35866 15.8332 8.83366 15.3082 8.83366 14.6665V5.33317C8.83366 4.6915 9.35866 4.1665 10.0003 4.1665ZM14.667 10.8332C15.3087 10.8332 15.8337 11.3582 15.8337 11.9998V14.6665C15.8337 15.3082 15.3087 15.8332 14.667 15.8332C14.0253 15.8332 13.5003 15.3082 13.5003 14.6665V11.9998C13.5003 11.3582 14.0253 10.8332 14.667 10.8332V10.8332Z" fill="#969696"/>
</svg>
