<svg xmlns="http://www.w3.org/2000/svg" width="20" height="20" viewBox="0 0 20 20" fill="none">
  <path fill-rule="evenodd" clip-rule="evenodd" d="M16.6667 2.50016H15.8333V1.66683C15.8333 1.2085 15.4583 0.833496 15 0.833496C14.5417 0.833496 14.1667 1.2085 14.1667 1.66683V2.50016H5.83332V1.66683C5.83332 1.2085 5.45832 0.833496 4.99999 0.833496C4.54166 0.833496 4.16666 1.2085 4.16666 1.66683V2.50016H3.33332C2.41666 2.50016 1.66666 3.25016 1.66666 4.16683V17.5002C1.66666 18.4168 2.41666 19.1668 3.33332 19.1668H16.6667C17.5833 19.1668 18.3333 18.4168 18.3333 17.5002V4.16683C18.3333 3.25016 17.5833 2.50016 16.6667 2.50016ZM15.8333 17.5002H4.16666C3.70832 17.5002 3.33332 17.1252 3.33332 16.6668V6.66683H16.6667V16.6668C16.6667 17.1252 16.2917 17.5002 15.8333 17.5002Z" fill="#0085FF"/>
</svg>
