<svg xmlns="http://www.w3.org/2000/svg" width="20" height="21" viewBox="0 0 20 21" fill="none">
<path d="M16.5045 4.17427C16.5066 4.17636 16.5087 4.17844 16.5087 4.18261C16.7753 4.54927 16.7087 5.06594 16.3503 5.33261C16.2197 5.43118 16.0869 5.53194 15.9532 5.63337C15.6348 5.87495 15.3114 6.12038 15.0003 6.34927C14.6337 6.62427 14.1253 6.54927 13.8503 6.18261C13.8503 6.17844 13.8482 6.17636 13.8462 6.17427C13.8441 6.17219 13.842 6.17011 13.842 6.16594C13.567 5.80761 13.6337 5.29094 14.0003 5.01594C14.2763 4.80363 14.5692 4.58456 14.8597 4.36735C15.0252 4.24352 15.19 4.1203 15.3503 3.99927C15.7087 3.72427 16.2253 3.79927 16.5003 4.16594C16.5003 4.17011 16.5024 4.17219 16.5045 4.17427Z" fill="#969696"/>
<path d="M15.0003 10.1742C15.0003 10.6326 15.3753 11.0076 15.8337 11.0076H17.5003C17.9587 11.0076 18.3337 10.6326 18.3337 10.1742C18.3337 9.7159 17.9587 9.3409 17.5003 9.3409H15.8337C15.3753 9.3409 15.0003 9.7159 15.0003 10.1742Z" fill="#969696"/>
<path d="M13.8253 14.1908C13.5503 14.5575 13.6253 15.0658 13.992 15.3325C14.4337 15.6575 14.9003 16.0075 15.342 16.3408C15.7087 16.6158 16.2253 16.5408 16.492 16.1741C16.492 16.17 16.4941 16.1679 16.4962 16.1658C16.4983 16.1637 16.5003 16.1616 16.5003 16.1575C16.7753 15.7908 16.7003 15.2741 16.3337 15.0075C15.8935 14.6752 15.4284 14.3265 14.9963 14.0024L14.992 13.9991C14.6253 13.7241 14.1087 13.8075 13.8337 14.1741C13.8337 14.1825 13.8253 14.1908 13.8253 14.1908Z" fill="#969696"/>
<path d="M6.66699 7.67424H3.33366C2.41699 7.67424 1.66699 8.42423 1.66699 9.3409V11.0076C1.66699 11.9242 2.41699 12.6742 3.33366 12.6742H4.16699V15.1742C4.16699 15.6326 4.54199 16.0076 5.00033 16.0076C5.45866 16.0076 5.83366 15.6326 5.83366 15.1742V12.6742H6.66699L10.8337 15.1742V5.17424L6.66699 7.67424Z" fill="#969696"/>
<path d="M11.667 7.38249C12.4337 8.06582 12.917 9.06582 12.917 10.1742C12.917 11.2825 12.4337 12.2825 11.667 12.9575V7.38249Z" fill="#969696"/>
</svg>
