<svg xmlns="http://www.w3.org/2000/svg" width="20" height="21" viewBox="0 0 20 21" fill="none">
  <path fill-rule="evenodd" clip-rule="evenodd" d="M10.0003 2.1665C5.40033 2.1665 1.66699 5.89984 1.66699 10.4998C1.66699 15.0998 5.40033 18.8332 10.0003 18.8332C14.6003 18.8332 18.3337 15.0998 18.3337 10.4998C18.3337 5.89984 14.6003 2.1665 10.0003 2.1665ZM10.8337 16.3332H9.16699V14.6665H10.8337V16.3332ZM12.5587 9.87484L11.8087 10.6415C11.392 11.0665 11.092 11.4498 10.942 12.0498C10.8753 12.3165 10.8337 12.6165 10.8337 12.9998H9.16699V12.5832C9.16699 12.1998 9.23366 11.8332 9.35033 11.4915C9.51699 11.0082 9.79199 10.5748 10.142 10.2248L11.1753 9.17484C11.5587 8.80817 11.742 8.25817 11.6337 7.67484C11.5253 7.07484 11.0587 6.5665 10.4753 6.39984C9.55033 6.1415 8.69199 6.6665 8.41699 7.45817C8.31699 7.7665 8.05866 7.99984 7.73366 7.99984H7.48366C7.00033 7.99984 6.66699 7.53317 6.80033 7.0665C7.15866 5.8415 8.20033 4.90817 9.49199 4.70817C10.7587 4.50817 11.967 5.1665 12.717 6.20817C13.7003 7.5665 13.4087 9.02484 12.5587 9.87484V9.87484Z" fill="#969696"/>
</svg>
