<svg xmlns="http://www.w3.org/2000/svg" width="16" height="16" viewBox="0 0 16 16" fill="none">
  <path fill-rule="evenodd" clip-rule="evenodd" d="M13.3335 2.66699H2.66683C1.9335 2.66699 1.34016 3.26699 1.34016 4.00033L1.3335 12.0003C1.3335 12.7337 1.9335 13.3337 2.66683 13.3337H13.3335C14.0668 13.3337 14.6668 12.7337 14.6668 12.0003V4.00033C14.6668 3.26699 14.0668 2.66699 13.3335 2.66699ZM12.6668 12.0003H3.3335C2.96683 12.0003 2.66683 11.7003 2.66683 11.3337V5.33366L7.2935 8.22699C7.72683 8.50033 8.2735 8.50033 8.70683 8.22699L13.3335 5.33366V11.3337C13.3335 11.7003 13.0335 12.0003 12.6668 12.0003ZM8.00016 7.33366L2.66683 4.00033H13.3335L8.00016 7.33366Z" fill="#969696"/>
</svg>
