<svg xmlns="http://www.w3.org/2000/svg" width="24" height="25" viewBox="0 0 24 25" fill="none">
  <path fill-rule="evenodd" clip-rule="evenodd" d="M11.9996 22.5C13.0996 22.5 13.9996 21.6 13.9996 20.5H9.99956C9.99956 21.6 10.8896 22.5 11.9996 22.5ZM17.9996 16.5V11.5C17.9996 8.43 16.3596 5.86 13.4996 5.18V4.5C13.4996 3.67 12.8296 3 11.9996 3C11.1696 3 10.4996 3.67 10.4996 4.5V5.18C7.62956 5.86 5.99956 8.42 5.99956 11.5V16.5L4.70956 17.79C4.07956 18.42 4.51956 19.5 5.40956 19.5H18.5796C19.4696 19.5 19.9196 18.42 19.2896 17.79L17.9996 16.5Z" fill="#969696"/>
</svg>
