<svg xmlns="http://www.w3.org/2000/svg" width="20" height="20" viewBox="0 0 20 20" fill="none">
  <path fill-rule="evenodd" clip-rule="evenodd" d="M10.0003 1.6665C5.40033 1.6665 1.66699 5.39984 1.66699 9.99984C1.66699 14.5998 5.40033 18.3332 10.0003 18.3332C14.6003 18.3332 18.3337 14.5998 18.3337 9.99984C18.3337 5.39984 14.6003 1.6665 10.0003 1.6665ZM13.0087 6.94984C13.9003 6.94984 14.617 7.6665 14.617 8.55817C14.617 9.44984 13.9003 10.1665 13.0087 10.1665C12.117 10.1665 11.4003 9.44984 11.4003 8.55817C11.392 7.6665 12.117 6.94984 13.0087 6.94984ZM8.00866 5.63317C9.09199 5.63317 9.97532 6.5165 9.97532 7.59984C9.97532 8.68317 9.09199 9.5665 8.00866 9.5665C6.92533 9.5665 6.04199 8.68317 6.04199 7.59984C6.04199 6.50817 6.91699 5.63317 8.00866 5.63317ZM8.00866 13.2415V16.3665C6.00866 15.7415 4.42533 14.1998 3.72533 12.2332C4.60033 11.2998 6.78366 10.8248 8.00866 10.8248C8.45033 10.8248 9.00866 10.8915 9.59199 11.0082C8.22533 11.7332 8.00866 12.6915 8.00866 13.2415ZM10.0003 16.6665C9.77533 16.6665 9.55866 16.6582 9.34199 16.6332V13.2415C9.34199 12.0582 11.792 11.4665 13.0087 11.4665C13.9003 11.4665 15.442 11.7915 16.2087 12.4248C15.2337 14.8998 12.8253 16.6665 10.0003 16.6665Z" fill="#969696"/>
</svg>
