<svg xmlns="http://www.w3.org/2000/svg" width="20" height="20" viewBox="0 0 20 20" fill="none">
  <path fill-rule="evenodd" clip-rule="evenodd" d="M13.75 9.99984C14.9 9.99984 15.825 9.0665 15.825 7.9165C15.825 6.7665 14.9 5.83317 13.75 5.83317C12.6 5.83317 11.6667 6.7665 11.6667 7.9165C11.6667 9.0665 12.6 9.99984 13.75 9.99984ZM7.50001 9.1665C8.88334 9.1665 9.99167 8.04984 9.99167 6.6665C9.99167 5.28317 8.88334 4.1665 7.50001 4.1665C6.11667 4.1665 5.00001 5.28317 5.00001 6.6665C5.00001 8.04984 6.11667 9.1665 7.50001 9.1665ZM13.75 11.6665C12.225 11.6665 9.16667 12.4332 9.16667 13.9582V14.9998C9.16667 15.4582 9.54167 15.8332 10 15.8332H17.5C17.9583 15.8332 18.3333 15.4582 18.3333 14.9998V13.9582C18.3333 12.4332 15.275 11.6665 13.75 11.6665ZM7.50001 10.8332C5.55834 10.8332 1.66667 11.8082 1.66667 13.7498V14.9998C1.66667 15.4582 2.04167 15.8332 2.50001 15.8332H7.50001V13.9582C7.50001 13.2498 7.77501 12.0082 9.47501 11.0665C8.75001 10.9165 8.05001 10.8332 7.50001 10.8332Z" fill="#969696"/>
</svg>
