<svg xmlns="http://www.w3.org/2000/svg" width="20" height="20" viewBox="0 0 20 20" fill="none">
  <path fill-rule="evenodd" clip-rule="evenodd" d="M16.1918 10.8165C16.2251 10.5498 16.2501 10.2832 16.2501 9.99984C16.2501 9.7165 16.2251 9.44984 16.1918 9.18317L17.9501 7.80817C18.1084 7.68317 18.1501 7.45817 18.0501 7.27484L16.3834 4.3915C16.2834 4.20817 16.0584 4.1415 15.8751 4.20817L13.8001 5.0415C13.3668 4.70817 12.9001 4.43317 12.3918 4.22484L12.0751 2.0165C12.0501 1.8165 11.8751 1.6665 11.6668 1.6665H8.33344C8.12511 1.6665 7.95011 1.8165 7.92511 2.0165L7.60844 4.22484C7.10011 4.43317 6.63344 4.7165 6.20011 5.0415L4.12511 4.20817C3.93344 4.13317 3.71678 4.20817 3.61678 4.3915L1.95011 7.27484C1.84178 7.45817 1.89178 7.68317 2.05011 7.80817L3.80844 9.18317C3.77511 9.44984 3.75011 9.72484 3.75011 9.99984C3.75011 10.2748 3.77511 10.5498 3.80844 10.8165L2.05011 12.1915C1.89178 12.3165 1.85011 12.5415 1.95011 12.7248L3.61678 15.6082C3.71678 15.7915 3.94178 15.8582 4.12511 15.7915L6.20011 14.9582C6.63344 15.2915 7.10011 15.5665 7.60844 15.7748L7.92511 17.9832C7.95011 18.1832 8.12511 18.3332 8.33344 18.3332H11.6668C11.8751 18.3332 12.0501 18.1832 12.0751 17.9832L12.3918 15.7748C12.9001 15.5665 13.3668 15.2832 13.8001 14.9582L15.8751 15.7915C16.0668 15.8665 16.2834 15.7915 16.3834 15.6082L18.0501 12.7248C18.1501 12.5415 18.1084 12.3165 17.9501 12.1915L16.1918 10.8165ZM10.0001 12.9165C8.39178 12.9165 7.08344 11.6082 7.08344 9.99984C7.08344 8.3915 8.39178 7.08317 10.0001 7.08317C11.6084 7.08317 12.9168 8.3915 12.9168 9.99984C12.9168 11.6082 11.6084 12.9165 10.0001 12.9165Z" fill="#969696"/>
</svg>
